# xmcd
#
# Track frame offsets: 
#        150
#        19338
#        34957
#        52837
#        71126
#        91774
#        106301
#        120412
#        138585
#        153576
#        171093
#        188828
#        202865
#        234232
#
# Disc length: 3454 seconds
#
# Revision: 0
# Processed by: cddbd v1.5.1PL0 Copyright (c) Steve Scherf et al.
# Submitted via: ExactAudioCopy v0.95a5
#
DISCID=b40d7c0e
DTITLE=BlueSox - Live in De Voortuin
DYEAR=2003
DGENRE=Blues
TTITLE0=Shake it
TTITLE1=I'm a good man
TTITLE2=Slow down
TTITLE3=Hyping women
TTITLE4=Cold, cold feeling
TTITLE5=Rore up
TTITLE6=You can't judge a book
TTITLE7=Walking the dog
TTITLE8=Wino
TTITLE9=Willy and the handjive
TTITLE10=Thank you baby
TTITLE11=Ain't that a shame
TTITLE12=No free rides
TTITLE13=Out of control
EXTD=
EXTT0=
EXTT1=
EXTT2=
EXTT3=
EXTT4=
EXTT5=
EXTT6=
EXTT7=
EXTT8=
EXTT9=
EXTT10=
EXTT11=
EXTT12=
EXTT13=
PLAYORDER=
